:SAMPLES-PER-SECOND 30
:FULLY-SPECIFIED
:DEGREES
149
root  0.244015 34.4993 -13.6969 8.74132 -37.566 -2.19752
RightUpLeg  -9.17979 -13.2607 2.60662
RightLeg  13.6368 -1.05846 -0.18531
RightFoot  -0.556442 0.000245569 0.192508
RightToes  -18.7239 -0.0734292 -0.166484
Spine  0.0640096 3.36145 1.1902
Spine1  0.236331 6.8501 3.09984
HEad  -51.7452 -13.2069 4.45064
LeftShoulder1  -1.94126e-019 -3.10601e-018 -2.51263e-017
LeftArm  -8.06972 23.765 -83.9045
LeftForeArm  29.1203 -25.9309 -4.09752
LeftHand  -0.419313 -1.67552 7.06468
RightShoulder  -4.96962e-017 0 -2.36833e-017
RightArm  -13.1094 22.4851 75.8711
RightForeArm  36.6793 35.6739 5.87135
RightHand  -0.144993 -3.68209 -8.90676
LeftUpLeg  -30.115 8.4677 -0.1587
LeftLeg  23.768 7.77488 2.82858
LeftFoot  6.63904 -0.0570313 1.14479
LeftToes  -24.9977 1.34695e-006 1.12385e-007
150
root  -0.196247 34.3384 -12.9493 7.95201 -37.4682 -1.41277
RightUpLeg  -9.45889 -12.9719 1.43057
RightLeg  17.857 -1.44553 -0.365993
RightFoot  -3.40581 -0.00844184 0.280751
RightToes  -19.06 -0.0762806 -0.169221
Spine  0.0960143 3.49795 0.855504
Spine1  0.277119 7.11786 2.44022
HEad  -50.7504 -13.89 4.25014
LeftShoulder1  -1.94126e-019 -3.10601e-018 -2.51263e-017
LeftArm  -7.99128 24.8025 -83.1664
LeftForeArm  29.2716 -23.9625 -3.79237
LeftHand  -0.403124 -1.66634 6.80638
RightShoulder  -4.96962e-017 0 -2.36833e-017
RightArm  -12.6068 23.9167 76.796
RightForeArm  36.8872 35.4557 5.80454
RightHand  -0.139512 -3.7675 -8.96034
LeftUpLeg  -27.3704 3.91674 0.521826
LeftLeg  15.4655 7.73433 1.60597
LeftFoot  8.31878 -0.0849165 1.32917
LeftToes  -27.8164 1.34695e-006 1.12385e-007
151
root  -0.600869 34.0925 -12.1058 6.38625 -37.3631 -0.195928
RightUpLeg  -10.1652 -14.33 -0.430874
RightLeg  24.1161 -0.695356 -0.263705
RightFoot  -6.55313 -0.0151549 0.287662
RightToes  -20.0158 -0.0815466 -0.176949
Spine  0.208551 3.45905 0.459446
Spine1  0.466697 7.05463 1.64686
HEad  -49.2708 -14.1926 3.70742
LeftShoulder1  -1.94126e-019 -3.10601e-018 -2.51263e-017
LeftArm  -9.59397 25.7425 -82.7239
LeftForeArm  30.0051 -21.3666 -3.39584
LeftHand  -0.397728 -1.68257 6.7033
RightShoulder  -4.96962e-017 0 -2.36833e-017
RightArm  -11.4071 24.9657 77.9868
RightForeArm  37.1667 34.6128 5.57451
RightHand  -0.138101 -3.73912 -8.70368
LeftUpLeg  -24.6085 -1.45161 0.666604
LeftLeg  11.9453 8.98813 1.29813
LeftFoot  15.4302 -0.333934 2.6261
LeftToes  -26.7552 1.34695e-006 1.12385e-007
152
root  -0.891906 33.7805 -11.2225 4.29931 -37.0616 1.59701
RightUpLeg  -11.6642 -17.4867 -3.45025
RightLeg  32.3923 1.68601 0.910487
RightFoot  -8.25932 -0.0434695 -0.0663005
RightToes  -25.8364 -0.116326 -0.222012
Spine  0.364128 3.29845 -0.0625871
Spine1  0.723986 6.77943 0.582636
HEad  -47.8837 -14.4917 3.2674
LeftShoulder1  -1.94126e-019 -3.10601e-018 -2.51263e-017
LeftArm  -11.6904 26.4114 -82.3793
LeftForeArm  30.7578 -18.4806 -2.97024
LeftHand  -0.406627 -1.53459 6.98436
RightShoulder  -4.96962e-017 0 -2.36833e-017
RightArm  -9.86895 25.5083 78.9798
RightForeArm  36.7804 33.2669 5.26068
RightHand  -0.0211803 -5.41614 -7.12594
LeftUpLeg  -22.9836 -3.24478 -1.33494
LeftLeg  12.8875 10.7408 1.72822
LeftFoot  15.4431 -0.403058 3.13356
LeftToes  -17.9045 1.34695e-006 1.12385e-007
153
root  -1.0277 33.5504 -10.5104 2.13874 -35.9673 4.18158
RightUpLeg  -14.904 -19.6326 -7.18113
RightLeg  42.5381 2.86634 2.27787
RightFoot  -5.89438 -0.0350397 -0.15039
RightToes  -39.6237 -0.215484 -0.312987
Spine  0.663896 2.9402 -0.882565
Spine1  1.22286 6.15414 -1.10822
HEad  -47.5673 -15.2932 3.75225
LeftShoulder1  -1.94126e-019 -3.10601e-018 -2.51263e-017
LeftArm  -13.6568 25.53 -81.6374
LeftForeArm  31.1599 -14.7509 -2.42897
LeftHand  -0.418319 -1.31209 7.40122
RightShoulder  -4.96962e-017 0 -2.36833e-017
RightArm  -9.7839 25.2389 80.2261
RightForeArm  34.3358 31.0737 4.86531
RightHand  -0.111193 -3.20454 -5.15375
LeftUpLeg  -23.666 -4.94328 -4.04864
LeftLeg  17.4303 11.5727 2.80757
LeftFoot  12.0074 -0.270241 2.73069
LeftToes  -13.753 1.34695e-006 1.12385e-007
154
root  -1.25238 33.482 -10.0759 2.17551 -35.6165 4.59453
RightUpLeg  -19.2711 -19.5151 -7.86406
RightLeg  50.5663 2.00438 2.08896
RightFoot  -1.42256 -0.00511343 0.163119
RightToes  -40.7698 -0.224662 -0.319429
Spine  0.719201 3.02909 -1.31403
Spine1  1.28528 6.34875 -1.98101
HEad  -48.4323 -16.8835 4.68389
LeftShoulder1  -1.94126e-019 -3.10601e-018 -2.51263e-017
LeftArm  -16.452 23.9924 -80.784
LeftForeArm  33.3889 -11.9315 -2.05719
LeftHand  -0.429371 -1.29641 7.60957
RightShoulder  -4.96962e-017 0 -2.36833e-017
RightArm  -11.2442 20.5408 80.3311
RightForeArm  31.6172 34.0881 5.74309
RightHand  -0.123865 -2.13044 -4.07287
LeftUpLeg  -25.0255 -0.708581 -5.3708
LeftLeg  20.9489 6.96068 2.15426
LeftFoot  9.33104 -0.101392 1.40389
LeftToes  -11.0042 1.34695e-006 1.12385e-007
155
root  -1.53269 33.5614 -9.75956 3.39657 -35.7406 3.03586
RightUpLeg  -21.8975 -18.6984 -6.18176
RightLeg  51.5379 -0.730008 -0.860158
RightFoot  -1.77819 -0.00451686 0.301444
RightToes  -29.2019 -0.138464 -0.246381
Spine  0.867106 3.22493 -0.954295
Spine1  1.60111 6.76453 -1.27848
HEad  -49.4306 -17.5797 3.91907
LeftShoulder1  -1.94126e-019 -3.10601e-018 -2.51263e-017
LeftArm  -18.8361 22.6104 -81.0416
LeftForeArm  33.7971 -10.4498 -1.82922
LeftHand  -0.432331 -0.777311 8.26171
RightShoulder  -4.96962e-017 0 -2.36833e-017
RightArm  -10.4304 16.1469 80.0169
RightForeArm  26.4421 35.7778 6.47829
RightHand  -0.0553039 -4.56068 -4.81237
LeftUpLeg  -25.6605 2.00357 -4.51599
LeftLeg  22.7947 4.51033 1.55764
LeftFoot  7.696 -0.0469369 0.859347
LeftToes  -10.1701 1.34695e-006 1.12385e-007
156
root  -1.86897 33.752 -9.42332 4.18439 -35.306 1.30712
RightUpLeg  -21.1712 -17.9462 -4.51086
RightLeg  44.7228 -4.13831 -3.62739
RightFoot  -3.42767 0.000643155 0.617374
RightToes  -24.8989 -0.110417 -0.214996
Spine  1.12503 3.05066 -0.263159
Spine1  2.17413 6.42302 0.0778226
HEad  -49.6164 -17.2724 2.20264
LeftShoulder1  -1.94126e-019 -3.10601e-018 -2.51263e-017
LeftArm  -19.9041 22.2886 -81.9737
LeftForeArm  32.5929 -11.1158 -1.95149
LeftHand  -0.439961 -0.252509 9.14057
RightShoulder  -4.96962e-017 0 -2.36833e-017
RightArm  -11.1348 14.2562 80.2834
RightForeArm  21.7897 34.3299 6.36701
RightHand  0.0317535 -6.23572 -7.85846
LeftUpLeg  -24.5961 0.267132 -2.77262
LeftLeg  22.7337 5.8768 2.02179
LeftFoot  7.23095 -0.0532869 1.00485
LeftToes  -10.6515 1.34695e-006 1.12385e-007
157
root  -2.20428 33.9199 -9.13579 4.51749 -35.0249 0.941672
RightUpLeg  -18.8838 -17.0164 -3.86629
RightLeg  31.8297 -6.08549 -3.25659
RightFoot  -1.43205 -0.00243665 0.441899
RightToes  -24.6982 -0.109168 -0.213482
Spine  1.12295 2.79596 -0.0207591
Spine1  2.19126 5.89378 0.554022
HEad  -49.3012 -17.3031 1.82417
LeftShoulder1  -1.94126e-019 -3.10601e-018 -2.51263e-017
LeftArm  -18.5824 23.1376 -82.1576
LeftForeArm  30.8108 -14.1362 -2.47002
LeftHand  -0.429381 -0.0401776 9.25201
RightShoulder  -4.96962e-017 0 -2.36833e-017
RightArm  -12.8901 13.8041 80.7187
RightForeArm  23.1477 33.9204 6.18037
RightHand  0.066532 -6.49508 -9.56735
LeftUpLeg  -23.199 -2.25004 -1.94641
LeftLeg  21.2713 8.01764 2.52872
LeftFoot  7.52483 -0.0755422 1.32394
LeftToes  -11.6223 1.34695e-006 1.12385e-007
158
root  -2.54711 34.0469 -9.01634 5.46221 -35.7059 0.352878
RightUpLeg  -18.4915 -15.9999 -2.62991
RightLeg  25.2605 -6.41608 -2.53459
RightFoot  0.40808 0.000632539 0.202501
RightToes  -16.8973 -0.0648463 -0.15142
Spine  0.959615 2.64896 0.0614859
Spine1  1.87574 5.57667 0.726536
HEad  -48.9134 -17.2719 2.77192
LeftShoulder1  -1.94126e-019 -3.10601e-018 -2.51263e-017
LeftArm  -14.8042 24.4179 -81.3433
LeftForeArm  28.3701 -18.0897 -3.05051
LeftHand  -0.40867 -0.36461 8.33898
RightShoulder  -4.96962e-017 0 -2.36833e-017
RightArm  -12.27 13.0653 80.3804
RightForeArm  25.8211 36.8606 6.80596
RightHand  0.0593123 -6.49532 -8.89142
LeftUpLeg  -22.796 -2.82362 -0.923226
LeftLeg  20.4543 9.17545 2.74856
LeftFoot  7.65627 -0.0905724 1.49772
LeftToes  -12.8467 1.34695e-006 1.12385e-007
159
root  -2.82113 34.1561 -8.97912 6.35415 -36.7494 -0.0658528
RightUpLeg  -18.7916 -12.3561 -2.21591
RightLeg  25.4082 -8.2547 -3.27766
RightFoot  1.26798 0.00510345 0.0617235
RightToes  -21.1159 -0.0877664 -0.185733
Spine  0.996077 2.44004 0.0153579
Spine1  1.94035 5.16161 0.627681
HEad  -48.442 -16.8684 3.36505
LeftShoulder1  -1.94126e-019 -3.10601e-018 -2.51263e-017
LeftArm  -11.3191 24.7935 -80.1937
LeftForeArm  27.9021 -21.1214 -3.40186
LeftHand  -0.409596 -0.979554 7.60056
RightShoulder  -4.96962e-017 0 -2.36833e-017
RightArm  -11.8001 12.5295 79.8154
RightForeArm  22.4457 43.6665 9.12785
RightHand  0.214661 -9.28603 -7.53099
LeftUpLeg  -22.5367 -2.99769 -0.0976981
LeftLeg  19.6176 10.309 2.92236
LeftFoot  7.93956 -0.108266 1.70659
LeftToes  -13.9257 1.34695e-006 1.12385e-007
